<mxfile host="app.diagrams.net" modified="2024-07-16T04:58:32.594Z" agent="Mozilla/5.0 (Windows NT 10.0; Win64; x64) AppleWebKit/537.36 (KHTML, like Gecko) Chrome/126.0.0.0 Safari/537.36" etag="QCKC0jXTIOB3SW678GJ4" version="24.6.3" type="github">
  <diagram name="Page-1" id="f1b7ffb7-ca1e-a977-7cf5-a751b3c06c05">
    <mxGraphModel dx="1709" dy="1198" grid="1" gridSize="10" guides="1" tooltips="1" connect="1" arrows="1" fold="1" page="1" pageScale="1" pageWidth="826" pageHeight="1169" background="#ffffff" math="0" shadow="0">
      <root>
        <mxCell id="0" />
        <mxCell id="1" parent="0" />
        <mxCell id="13" value="" style="verticalLabelPosition=bottom;verticalAlign=top;strokeWidth=1;shape=mxgraph.mockup.graphics.iconGrid;strokeColor=#CCCCCC;gridSize=1,1;" parent="1" vertex="1">
          <mxGeometry x="23" y="105" width="770" height="355" as="geometry" />
        </mxCell>
        <mxCell id="3" value="" style="line;strokeWidth=1" parent="1" vertex="1">
          <mxGeometry x="23" y="45" width="780" height="10" as="geometry" />
        </mxCell>
        <mxCell id="4" value="" style="line;strokeWidth=1" parent="1" vertex="1">
          <mxGeometry x="20" y="90" width="780" height="10" as="geometry" />
        </mxCell>
        <mxCell id="5" value="logo" style="text;spacingTop=0;" parent="1" vertex="1">
          <mxGeometry x="20" y="60" width="110" height="30" as="geometry" />
        </mxCell>
        <mxCell id="11" value="`" style="text;spacingTop=-5;" parent="1" vertex="1">
          <mxGeometry x="740" y="70.00000000000013" width="30" height="20" as="geometry" />
        </mxCell>
        <mxCell id="27" value="" style="verticalLabelPosition=bottom;verticalAlign=top;strokeWidth=1;shape=mxgraph.mockup.graphics.iconGrid;strokeColor=#CCCCCC;gridSize=1,1;" parent="1" vertex="1">
          <mxGeometry x="27" y="460" width="773" height="300" as="geometry" />
        </mxCell>
        <mxCell id="4vXdtOB4Ty5rOKLSspI8-62" value="login" style="text;spacingTop=0;" vertex="1" parent="1">
          <mxGeometry x="650" y="60" width="50" height="30" as="geometry" />
        </mxCell>
        <mxCell id="4vXdtOB4Ty5rOKLSspI8-64" value="google sign" style="text;spacingTop=0;" vertex="1" parent="1">
          <mxGeometry x="710" y="60" width="70" height="30" as="geometry" />
        </mxCell>
        <mxCell id="4vXdtOB4Ty5rOKLSspI8-66" value="&lt;h1&gt;Earning money xxxxly&lt;/h1&gt;" style="text;strokeColor=none;align=center;fillColor=none;html=1;verticalAlign=middle;whiteSpace=wrap;rounded=0;" vertex="1" parent="1">
          <mxGeometry x="100" y="180" width="300" height="30" as="geometry" />
        </mxCell>
        <mxCell id="4vXdtOB4Ty5rOKLSspI8-67" value="&lt;div&gt;Your rewards, our concern.&lt;br&gt;&lt;/div&gt;" style="text;strokeColor=none;align=center;fillColor=none;html=1;verticalAlign=middle;whiteSpace=wrap;rounded=0;" vertex="1" parent="1">
          <mxGeometry x="120" y="210" width="250" height="50" as="geometry" />
        </mxCell>
        <mxCell id="4vXdtOB4Ty5rOKLSspI8-71" value="" style="verticalLabelPosition=bottom;verticalAlign=top;strokeWidth=1;shape=mxgraph.mockup.graphics.iconGrid;strokeColor=#CCCCCC;gridSize=1,1;" vertex="1" parent="1">
          <mxGeometry x="470" y="250" width="182.25" height="195" as="geometry" />
        </mxCell>
        <mxCell id="4vXdtOB4Ty5rOKLSspI8-73" value="&lt;h1&gt;松鼠&lt;/h1&gt;" style="text;strokeColor=none;align=center;fillColor=none;html=1;verticalAlign=middle;whiteSpace=wrap;rounded=0;" vertex="1" parent="1">
          <mxGeometry x="527.5" y="310" width="60" height="30" as="geometry" />
        </mxCell>
        <mxCell id="4vXdtOB4Ty5rOKLSspI8-74" value="增加金币" style="text;strokeColor=none;align=center;fillColor=none;html=1;verticalAlign=middle;whiteSpace=wrap;rounded=0;" vertex="1" parent="1">
          <mxGeometry x="527.5" y="350" width="60" height="30" as="geometry" />
        </mxCell>
        <mxCell id="4vXdtOB4Ty5rOKLSspI8-75" value="" style="whiteSpace=wrap;html=1;" vertex="1" parent="1">
          <mxGeometry x="150" y="270" width="170" height="40" as="geometry" />
        </mxCell>
        <mxCell id="4vXdtOB4Ty5rOKLSspI8-77" value="Start earning now" style="text;strokeColor=none;align=center;fillColor=none;html=1;verticalAlign=middle;whiteSpace=wrap;rounded=0;" vertex="1" parent="1">
          <mxGeometry x="170" y="281.25" width="110" height="17.5" as="geometry" />
        </mxCell>
        <mxCell id="4vXdtOB4Ty5rOKLSspI8-78" value="背景增加netflex&lt;div&gt;uber等礼品卡填充 注意ui的一致性显示logo即可&lt;/div&gt;" style="shape=note;whiteSpace=wrap;html=1;backgroundOutline=1;fontColor=#000000;darkOpacity=0.05;fillColor=#FFF9B2;strokeColor=none;fillStyle=solid;direction=west;gradientDirection=north;gradientColor=#FFF2A1;shadow=1;size=20;pointerEvents=1;" vertex="1" parent="1">
          <mxGeometry x="670" y="312.5" width="110" height="70" as="geometry" />
        </mxCell>
        <mxCell id="4vXdtOB4Ty5rOKLSspI8-79" value="xxx offers availabe" style="text;strokeColor=none;align=center;fillColor=none;html=1;verticalAlign=middle;whiteSpace=wrap;rounded=0;" vertex="1" parent="1">
          <mxGeometry x="145" y="310" width="115" height="30" as="geometry" />
        </mxCell>
        <mxCell id="4vXdtOB4Ty5rOKLSspI8-81" value="earn up to xxx" style="text;strokeColor=none;align=center;fillColor=none;html=1;verticalAlign=middle;whiteSpace=wrap;rounded=0;" vertex="1" parent="1">
          <mxGeometry x="240" y="310" width="120" height="30" as="geometry" />
        </mxCell>
        <mxCell id="4vXdtOB4Ty5rOKLSspI8-82" value="动态显示，本土数据" style="shape=note;whiteSpace=wrap;html=1;backgroundOutline=1;fontColor=#000000;darkOpacity=0.05;fillColor=#FFF9B2;strokeColor=none;fillStyle=solid;direction=west;gradientDirection=north;gradientColor=#FFF2A1;shadow=1;size=20;pointerEvents=1;" vertex="1" parent="1">
          <mxGeometry x="340" y="305" width="85" height="40" as="geometry" />
        </mxCell>
        <mxCell id="4vXdtOB4Ty5rOKLSspI8-84" value="&lt;h1&gt;Get sarted is easy&lt;/h1&gt;" style="text;strokeColor=none;align=center;fillColor=none;html=1;verticalAlign=middle;whiteSpace=wrap;rounded=0;" vertex="1" parent="1">
          <mxGeometry x="230" y="470" width="390" height="30" as="geometry" />
        </mxCell>
        <mxCell id="4vXdtOB4Ty5rOKLSspI8-85" value="" style="verticalLabelPosition=bottom;verticalAlign=top;strokeWidth=1;shape=mxgraph.mockup.graphics.iconGrid;strokeColor=#CCCCCC;gridSize=1,1;" vertex="1" parent="1">
          <mxGeometry x="120" y="520" width="110" height="100" as="geometry" />
        </mxCell>
        <mxCell id="4vXdtOB4Ty5rOKLSspI8-86" value="" style="verticalLabelPosition=bottom;verticalAlign=top;strokeWidth=1;shape=mxgraph.mockup.graphics.iconGrid;strokeColor=#CCCCCC;gridSize=1,1;" vertex="1" parent="1">
          <mxGeometry x="375" y="520" width="110" height="100" as="geometry" />
        </mxCell>
        <mxCell id="4vXdtOB4Ty5rOKLSspI8-87" value="" style="verticalLabelPosition=bottom;verticalAlign=top;strokeWidth=1;shape=mxgraph.mockup.graphics.iconGrid;strokeColor=#CCCCCC;gridSize=1,1;" vertex="1" parent="1">
          <mxGeometry x="641" y="520" width="110" height="100" as="geometry" />
        </mxCell>
        <mxCell id="4vXdtOB4Ty5rOKLSspI8-89" value="" style="verticalLabelPosition=bottom;verticalAlign=top;strokeWidth=1;shape=mxgraph.mockup.graphics.iconGrid;strokeColor=#CCCCCC;gridSize=1,1;" vertex="1" parent="1">
          <mxGeometry x="28" y="760" width="770" height="930" as="geometry" />
        </mxCell>
        <mxCell id="4vXdtOB4Ty5rOKLSspI8-90" value="&lt;h1&gt;Browsing&lt;/h1&gt;" style="text;strokeColor=none;align=center;fillColor=none;html=1;verticalAlign=middle;whiteSpace=wrap;rounded=0;" vertex="1" parent="1">
          <mxGeometry x="375" y="860" width="230" height="30" as="geometry" />
        </mxCell>
        <mxCell id="4vXdtOB4Ty5rOKLSspI8-91" value="" style="verticalLabelPosition=bottom;verticalAlign=top;strokeWidth=1;shape=mxgraph.mockup.graphics.iconGrid;strokeColor=#CCCCCC;gridSize=1,1;" vertex="1" parent="1">
          <mxGeometry x="105" y="840" width="265" height="180" as="geometry" />
        </mxCell>
        <mxCell id="4vXdtOB4Ty5rOKLSspI8-92" value="&lt;h1&gt;Many ways to earn&lt;/h1&gt;" style="text;strokeColor=none;align=center;fillColor=none;html=1;verticalAlign=middle;whiteSpace=wrap;rounded=0;" vertex="1" parent="1">
          <mxGeometry x="251" y="780" width="390" height="30" as="geometry" />
        </mxCell>
        <mxCell id="4vXdtOB4Ty5rOKLSspI8-94" value="Earn coins by browsing various websites&amp;nbsp;" style="text;strokeColor=none;align=left;fillColor=none;html=1;verticalAlign=middle;whiteSpace=wrap;rounded=0;" vertex="1" parent="1">
          <mxGeometry x="433.75" y="910" width="180" height="30" as="geometry" />
        </mxCell>
        <mxCell id="4vXdtOB4Ty5rOKLSspI8-95" value="" style="verticalLabelPosition=bottom;verticalAlign=top;strokeWidth=1;shape=mxgraph.mockup.graphics.iconGrid;strokeColor=#CCCCCC;gridSize=1,1;" vertex="1" parent="1">
          <mxGeometry x="433.75" y="1060" width="265" height="150" as="geometry" />
        </mxCell>
        <mxCell id="4vXdtOB4Ty5rOKLSspI8-96" value="&lt;h1&gt;Gaming&amp;nbsp;&lt;/h1&gt;" style="text;strokeColor=none;align=center;fillColor=none;html=1;verticalAlign=middle;whiteSpace=wrap;rounded=0;" vertex="1" parent="1">
          <mxGeometry x="60" y="1080" width="230" height="30" as="geometry" />
        </mxCell>
        <mxCell id="4vXdtOB4Ty5rOKLSspI8-98" value="轮播图&lt;div&gt;&lt;br&gt;&lt;/div&gt;&lt;div&gt;monopoly&amp;nbsp; 等热门ip游戏图标&lt;/div&gt;&lt;div&gt;可点击点击停止轮播&lt;/div&gt;" style="text;strokeColor=none;align=center;fillColor=none;html=1;verticalAlign=middle;whiteSpace=wrap;rounded=0;" vertex="1" parent="1">
          <mxGeometry x="471.62" y="1120" width="180.63" height="30" as="geometry" />
        </mxCell>
        <mxCell id="4vXdtOB4Ty5rOKLSspI8-99" value="Play free games on your phone and get coins for completing various in-game steps." style="text;strokeColor=none;align=left;fillColor=none;html=1;verticalAlign=middle;whiteSpace=wrap;rounded=0;" vertex="1" parent="1">
          <mxGeometry x="125" y="1120" width="245" height="30" as="geometry" />
        </mxCell>
        <mxCell id="4vXdtOB4Ty5rOKLSspI8-100" value="" style="verticalLabelPosition=bottom;verticalAlign=top;strokeWidth=1;shape=mxgraph.mockup.graphics.iconGrid;strokeColor=#CCCCCC;gridSize=1,1;" vertex="1" parent="1">
          <mxGeometry x="110" y="1290" width="265" height="150" as="geometry" />
        </mxCell>
        <mxCell id="4vXdtOB4Ty5rOKLSspI8-104" value="&lt;h1&gt;Trying out&lt;/h1&gt;" style="text;strokeColor=none;align=center;fillColor=none;html=1;verticalAlign=middle;whiteSpace=wrap;rounded=0;" vertex="1" parent="1">
          <mxGeometry x="390" y="1320" width="230" height="30" as="geometry" />
        </mxCell>
        <mxCell id="4vXdtOB4Ty5rOKLSspI8-105" value="Help companies try out their apps and collect coin rewards." style="text;strokeColor=none;align=left;fillColor=none;html=1;verticalAlign=middle;whiteSpace=wrap;rounded=0;" vertex="1" parent="1">
          <mxGeometry x="450" y="1360" width="180" height="30" as="geometry" />
        </mxCell>
        <mxCell id="4vXdtOB4Ty5rOKLSspI8-106" value="" style="verticalLabelPosition=bottom;verticalAlign=top;strokeWidth=1;shape=mxgraph.mockup.graphics.iconGrid;strokeColor=#CCCCCC;gridSize=1,1;" vertex="1" parent="1">
          <mxGeometry x="435" y="1490" width="265" height="150" as="geometry" />
        </mxCell>
        <mxCell id="4vXdtOB4Ty5rOKLSspI8-109" value="&lt;h1&gt;Sharing opinions&lt;/h1&gt;" style="text;strokeColor=none;align=center;fillColor=none;html=1;verticalAlign=middle;whiteSpace=wrap;rounded=0;" vertex="1" parent="1">
          <mxGeometry x="106.25" y="1530" width="230" height="30" as="geometry" />
        </mxCell>
        <mxCell id="4vXdtOB4Ty5rOKLSspI8-110" value="Earn coins for sharing your opinions, and influence the next generate products or services of the world." style="text;strokeColor=none;align=left;fillColor=none;html=1;verticalAlign=middle;whiteSpace=wrap;rounded=0;" vertex="1" parent="1">
          <mxGeometry x="120" y="1580" width="260" height="30" as="geometry" />
        </mxCell>
        <mxCell id="4vXdtOB4Ty5rOKLSspI8-111" value="&lt;h1 style=&quot;font-size: 14px;&quot;&gt;Login&lt;/h1&gt;" style="text;strokeColor=none;align=center;fillColor=none;html=1;verticalAlign=middle;whiteSpace=wrap;rounded=0;fontSize=14;" vertex="1" parent="1">
          <mxGeometry x="60" y="620" width="230" height="30" as="geometry" />
        </mxCell>
        <mxCell id="4vXdtOB4Ty5rOKLSspI8-116" value="&lt;h1 style=&quot;font-size: 14px;&quot;&gt;Earn&lt;/h1&gt;" style="text;strokeColor=none;align=center;fillColor=none;html=1;verticalAlign=middle;whiteSpace=wrap;rounded=0;fontSize=14;" vertex="1" parent="1">
          <mxGeometry x="310" y="630" width="230" height="30" as="geometry" />
        </mxCell>
        <mxCell id="4vXdtOB4Ty5rOKLSspI8-117" value="&lt;h1 style=&quot;font-size: 14px;&quot;&gt;Cash out&lt;/h1&gt;" style="text;strokeColor=none;align=center;fillColor=none;html=1;verticalAlign=middle;whiteSpace=wrap;rounded=0;fontSize=14;" vertex="1" parent="1">
          <mxGeometry x="587.5" y="630" width="230" height="30" as="geometry" />
        </mxCell>
        <mxCell id="4vXdtOB4Ty5rOKLSspI8-118" value="Sign up a free account and login" style="text;strokeColor=none;align=left;fillColor=none;html=1;verticalAlign=middle;whiteSpace=wrap;rounded=0;" vertex="1" parent="1">
          <mxGeometry x="86" y="660" width="184" height="30" as="geometry" />
        </mxCell>
        <mxCell id="4vXdtOB4Ty5rOKLSspI8-119" value="Earn coins by browsing gaming trying out and sharing options&amp;nbsp;" style="text;strokeColor=none;align=left;fillColor=none;html=1;verticalAlign=middle;whiteSpace=wrap;rounded=0;" vertex="1" parent="1">
          <mxGeometry x="345" y="660" width="185" height="30" as="geometry" />
        </mxCell>
        <mxCell id="4vXdtOB4Ty5rOKLSspI8-120" value="Exchange collected coins for cash or a variety of gift cards." style="text;strokeColor=none;align=left;fillColor=none;html=1;verticalAlign=middle;whiteSpace=wrap;rounded=0;" vertex="1" parent="1">
          <mxGeometry x="620" y="660" width="190" height="30" as="geometry" />
        </mxCell>
        <mxCell id="4vXdtOB4Ty5rOKLSspI8-121" value="" style="verticalLabelPosition=bottom;verticalAlign=top;strokeWidth=1;shape=mxgraph.mockup.graphics.iconGrid;strokeColor=#CCCCCC;gridSize=1,1;" vertex="1" parent="1">
          <mxGeometry x="30" y="1754" width="770" height="370" as="geometry" />
        </mxCell>
        <mxCell id="4vXdtOB4Ty5rOKLSspI8-124" value="&lt;h1&gt;Redeem your points upon your wish&lt;/h1&gt;" style="text;strokeColor=none;align=center;fillColor=none;html=1;verticalAlign=middle;whiteSpace=wrap;rounded=0;" vertex="1" parent="1">
          <mxGeometry x="182.75" y="1750" width="484.5" height="60" as="geometry" />
        </mxCell>
        <mxCell id="4vXdtOB4Ty5rOKLSspI8-125" value="We support&amp;nbsp;&amp;nbsp;&lt;span style=&quot;color: rgb(115, 115, 115); font-family: __Archivo_dddaac, __Archivo_Fallback_dddaac; font-size: 20px; text-align: center; background-color: rgb(255, 255, 255);&quot;&gt;cash and gift cards&lt;/span&gt;" style="text;strokeColor=none;align=left;fillColor=none;html=1;verticalAlign=middle;whiteSpace=wrap;rounded=0;" vertex="1" parent="1">
          <mxGeometry x="290" y="1810" width="260" height="30" as="geometry" />
        </mxCell>
        <mxCell id="4vXdtOB4Ty5rOKLSspI8-126" value="" style="verticalLabelPosition=bottom;verticalAlign=top;strokeWidth=1;shape=mxgraph.mockup.graphics.iconGrid;strokeColor=#CCCCCC;gridSize=1,1;" vertex="1" parent="1">
          <mxGeometry x="218" y="1890" width="585" height="150" as="geometry" />
        </mxCell>
        <mxCell id="4vXdtOB4Ty5rOKLSspI8-127" value="动态显示，根据兑换的热门度进行排序" style="text;strokeColor=none;align=center;fillColor=none;html=1;verticalAlign=middle;whiteSpace=wrap;rounded=0;" vertex="1" parent="1">
          <mxGeometry x="375" y="1900" width="220" height="30" as="geometry" />
        </mxCell>
        <mxCell id="4vXdtOB4Ty5rOKLSspI8-128" value="" style="verticalLabelPosition=bottom;verticalAlign=top;strokeWidth=1;shape=mxgraph.mockup.graphics.iconGrid;strokeColor=#CCCCCC;gridSize=1,1;" vertex="1" parent="1">
          <mxGeometry x="236.88" y="1930" width="103.12" height="95" as="geometry" />
        </mxCell>
        <mxCell id="4vXdtOB4Ty5rOKLSspI8-130" value="" style="verticalLabelPosition=bottom;verticalAlign=top;strokeWidth=1;shape=mxgraph.mockup.graphics.iconGrid;strokeColor=#CCCCCC;gridSize=1,1;" vertex="1" parent="1">
          <mxGeometry x="383.44" y="1930" width="103.12" height="95" as="geometry" />
        </mxCell>
        <mxCell id="4vXdtOB4Ty5rOKLSspI8-131" value="" style="verticalLabelPosition=bottom;verticalAlign=top;strokeWidth=1;shape=mxgraph.mockup.graphics.iconGrid;strokeColor=#CCCCCC;gridSize=1,1;" vertex="1" parent="1">
          <mxGeometry x="537.88" y="1930" width="103.12" height="95" as="geometry" />
        </mxCell>
        <mxCell id="4vXdtOB4Ty5rOKLSspI8-132" value="" style="verticalLabelPosition=bottom;verticalAlign=top;strokeWidth=1;shape=mxgraph.mockup.graphics.iconGrid;strokeColor=#CCCCCC;gridSize=1,1;" vertex="1" parent="1">
          <mxGeometry x="690" y="1930" width="103.12" height="95" as="geometry" />
        </mxCell>
        <mxCell id="4vXdtOB4Ty5rOKLSspI8-133" value="" style="verticalLabelPosition=bottom;verticalAlign=top;strokeWidth=1;shape=mxgraph.mockup.graphics.iconGrid;strokeColor=#CCCCCC;gridSize=1,1;" vertex="1" parent="1">
          <mxGeometry x="25" y="2310" width="770" height="400" as="geometry" />
        </mxCell>
        <mxCell id="4vXdtOB4Ty5rOKLSspI8-134" value="&lt;h2 style=&quot;border: 0px solid; box-sizing: border-box; --tw-border-spacing-x: 0; --tw-border-spacing-y: 0; --tw-translate-x: 0; --tw-translate-y: 0; --tw-rotate: 0; --tw-skew-x: 0; --tw-skew-y: 0; --tw-scale-x: 1; --tw-scale-y: 1; --tw-pan-x: ; --tw-pan-y: ; --tw-pinch-zoom: ; --tw-scroll-snap-strictness: proximity; --tw-gradient-from-position: ; --tw-gradient-via-position: ; --tw-gradient-to-position: ; --tw-ordinal: ; --tw-slashed-zero: ; --tw-numeric-figure: ; --tw-numeric-spacing: ; --tw-numeric-fraction: ; --tw-ring-inset: ; --tw-ring-offset-width: 0px; --tw-ring-offset-color: #fff; --tw-ring-color: rgba(59,130,246,.5); --tw-ring-offset-shadow: 0 0 #0000; --tw-ring-shadow: 0 0 #0000; --tw-shadow: 0 0 #0000; --tw-shadow-colored: 0 0 #0000; --tw-blur: ; --tw-brightness: ; --tw-contrast: ; --tw-grayscale: ; --tw-hue-rotate: ; --tw-invert: ; --tw-saturate: ; --tw-sepia: ; --tw-drop-shadow: ; --tw-backdrop-blur: ; --tw-backdrop-brightness: ; --tw-backdrop-contrast: ; --tw-backdrop-grayscale: ; --tw-backdrop-hue-rotate: ; --tw-backdrop-invert: ; --tw-backdrop-opacity: ; --tw-backdrop-saturate: ; --tw-backdrop-sepia: ; --tw-contain-size: ; --tw-contain-layout: ; --tw-contain-paint: ; --tw-contain-style: ; font-size: 32px; margin: 0px 0px 20px; line-height: 38px; color: rgb(66, 66, 66); font-family: __Archivo_dddaac, __Archivo_Fallback_dddaac; background-color: rgb(255, 255, 255);&quot; class=&quot;text-[32px] leading-[38px] font-bold text-center mb-[20px]&quot;&gt;&amp;nbsp;See what our members say&lt;/h2&gt;" style="text;strokeColor=none;align=center;fillColor=none;html=1;verticalAlign=middle;whiteSpace=wrap;rounded=0;" vertex="1" parent="1">
          <mxGeometry x="130" y="2338" width="540" height="30" as="geometry" />
        </mxCell>
        <mxCell id="4vXdtOB4Ty5rOKLSspI8-135" value="" style="verticalLabelPosition=bottom;verticalAlign=top;strokeWidth=1;shape=mxgraph.mockup.graphics.iconGrid;strokeColor=#CCCCCC;gridSize=1,1;" vertex="1" parent="1">
          <mxGeometry x="30" y="2160" width="770" height="100" as="geometry" />
        </mxCell>
        <mxCell id="4vXdtOB4Ty5rOKLSspI8-136" value="量化，用户数据，支付笔数等，" style="text;strokeColor=none;align=center;fillColor=none;html=1;verticalAlign=middle;whiteSpace=wrap;rounded=0;" vertex="1" parent="1">
          <mxGeometry x="311" y="2195" width="220" height="30" as="geometry" />
        </mxCell>
        <mxCell id="4vXdtOB4Ty5rOKLSspI8-137" value="" style="verticalLabelPosition=bottom;verticalAlign=top;strokeWidth=1;shape=mxgraph.mockup.graphics.iconGrid;strokeColor=#CCCCCC;gridSize=1,1;" vertex="1" parent="1">
          <mxGeometry x="100" y="2400" width="170" height="250" as="geometry" />
        </mxCell>
        <mxCell id="4vXdtOB4Ty5rOKLSspI8-138" value="" style="verticalLabelPosition=bottom;verticalAlign=top;strokeWidth=1;shape=mxgraph.mockup.graphics.iconGrid;strokeColor=#CCCCCC;gridSize=1,1;" vertex="1" parent="1">
          <mxGeometry x="310" y="2400" width="220" height="95" as="geometry" />
        </mxCell>
        <mxCell id="4vXdtOB4Ty5rOKLSspI8-140" value="" style="verticalLabelPosition=bottom;verticalAlign=top;strokeWidth=1;shape=mxgraph.mockup.graphics.iconGrid;strokeColor=#CCCCCC;gridSize=1,1;" vertex="1" parent="1">
          <mxGeometry x="311" y="2520" width="219" height="125" as="geometry" />
        </mxCell>
        <mxCell id="4vXdtOB4Ty5rOKLSspI8-141" value="" style="verticalLabelPosition=bottom;verticalAlign=top;strokeWidth=1;shape=mxgraph.mockup.graphics.iconGrid;strokeColor=#CCCCCC;gridSize=1,1;" vertex="1" parent="1">
          <mxGeometry x="560" y="2400" width="220" height="150" as="geometry" />
        </mxCell>
        <mxCell id="4vXdtOB4Ty5rOKLSspI8-142" value="" style="verticalLabelPosition=bottom;verticalAlign=top;strokeWidth=1;shape=mxgraph.mockup.graphics.iconGrid;strokeColor=#CCCCCC;gridSize=1,1;" vertex="1" parent="1">
          <mxGeometry x="561" y="2570" width="219" height="70" as="geometry" />
        </mxCell>
        <mxCell id="4vXdtOB4Ty5rOKLSspI8-143" value="" style="verticalLabelPosition=bottom;verticalAlign=top;strokeWidth=1;shape=mxgraph.mockup.graphics.iconGrid;strokeColor=#CCCCCC;gridSize=1,1;" vertex="1" parent="1">
          <mxGeometry x="25" y="2720" width="770" height="270" as="geometry" />
        </mxCell>
        <mxCell id="4vXdtOB4Ty5rOKLSspI8-144" value="&lt;h2 style=&quot;border: 0px solid; box-sizing: border-box; --tw-border-spacing-x: 0; --tw-border-spacing-y: 0; --tw-translate-x: 0; --tw-translate-y: 0; --tw-rotate: 0; --tw-skew-x: 0; --tw-skew-y: 0; --tw-scale-x: 1; --tw-scale-y: 1; --tw-pan-x: ; --tw-pan-y: ; --tw-pinch-zoom: ; --tw-scroll-snap-strictness: proximity; --tw-gradient-from-position: ; --tw-gradient-via-position: ; --tw-gradient-to-position: ; --tw-ordinal: ; --tw-slashed-zero: ; --tw-numeric-figure: ; --tw-numeric-spacing: ; --tw-numeric-fraction: ; --tw-ring-inset: ; --tw-ring-offset-width: 0px; --tw-ring-offset-color: #fff; --tw-ring-color: rgba(59,130,246,.5); --tw-ring-offset-shadow: 0 0 #0000; --tw-ring-shadow: 0 0 #0000; --tw-shadow: 0 0 #0000; --tw-shadow-colored: 0 0 #0000; --tw-blur: ; --tw-brightness: ; --tw-contrast: ; --tw-grayscale: ; --tw-hue-rotate: ; --tw-invert: ; --tw-saturate: ; --tw-sepia: ; --tw-drop-shadow: ; --tw-backdrop-blur: ; --tw-backdrop-brightness: ; --tw-backdrop-contrast: ; --tw-backdrop-grayscale: ; --tw-backdrop-hue-rotate: ; --tw-backdrop-invert: ; --tw-backdrop-opacity: ; --tw-backdrop-saturate: ; --tw-backdrop-sepia: ; --tw-contain-size: ; --tw-contain-layout: ; --tw-contain-paint: ; --tw-contain-style: ; font-size: 32px; margin: 0px 0px 20px; line-height: 38px; color: rgb(66, 66, 66); font-family: __Archivo_dddaac, __Archivo_Fallback_dddaac; background-color: rgb(255, 255, 255);&quot; class=&quot;text-[32px] leading-[38px] font-bold text-center mb-[20px]&quot;&gt;Frequently Ased Questions&lt;/h2&gt;" style="text;strokeColor=none;align=center;fillColor=none;html=1;verticalAlign=middle;whiteSpace=wrap;rounded=0;" vertex="1" parent="1">
          <mxGeometry x="181.5" y="2750" width="487" height="30" as="geometry" />
        </mxCell>
        <mxCell id="4vXdtOB4Ty5rOKLSspI8-146" value="Get started now" style="whiteSpace=wrap;html=1;" vertex="1" parent="1">
          <mxGeometry x="383.75" y="710" width="92.5" height="30" as="geometry" />
        </mxCell>
        <mxCell id="4vXdtOB4Ty5rOKLSspI8-149" value="" style="verticalLabelPosition=bottom;verticalAlign=top;strokeWidth=1;shape=mxgraph.mockup.graphics.iconGrid;strokeColor=#CCCCCC;gridSize=1,1;" vertex="1" parent="1">
          <mxGeometry x="175.25" y="870" width="114.75" height="100" as="geometry" />
        </mxCell>
        <mxCell id="4vXdtOB4Ty5rOKLSspI8-150" value="click it to get ￥xxx" style="text;strokeColor=none;align=left;fillColor=none;html=1;verticalAlign=middle;whiteSpace=wrap;rounded=0;" vertex="1" parent="1">
          <mxGeometry x="170" y="980" width="184" height="30" as="geometry" />
        </mxCell>
        <mxCell id="4vXdtOB4Ty5rOKLSspI8-152" value="遮罩层&lt;div&gt;点击显示 brose now&lt;/div&gt;" style="text;strokeColor=none;align=left;fillColor=none;html=1;verticalAlign=middle;whiteSpace=wrap;rounded=0;" vertex="1" parent="1">
          <mxGeometry x="181.5" y="905" width="118.5" height="30" as="geometry" />
        </mxCell>
        <mxCell id="4vXdtOB4Ty5rOKLSspI8-154" value="所有都可点击诱导注册" style="shape=note;whiteSpace=wrap;html=1;backgroundOutline=1;fontColor=#000000;darkOpacity=0.05;fillColor=#FFF9B2;strokeColor=none;fillStyle=solid;direction=west;gradientDirection=north;gradientColor=#FFF2A1;shadow=1;size=20;pointerEvents=1;" vertex="1" parent="1">
          <mxGeometry x="690" y="895" width="110" height="70" as="geometry" />
        </mxCell>
        <mxCell id="4vXdtOB4Ty5rOKLSspI8-155" value="" style="verticalLabelPosition=bottom;verticalAlign=top;strokeWidth=1;shape=mxgraph.mockup.graphics.iconGrid;strokeColor=#CCCCCC;gridSize=1,1;" vertex="1" parent="1">
          <mxGeometry x="460.12" y="1500" width="99.88" height="100" as="geometry" />
        </mxCell>
        <mxCell id="4vXdtOB4Ty5rOKLSspI8-157" value="" style="verticalLabelPosition=bottom;verticalAlign=top;strokeWidth=1;shape=mxgraph.mockup.graphics.iconGrid;strokeColor=#CCCCCC;gridSize=1,1;" vertex="1" parent="1">
          <mxGeometry x="580" y="1500" width="99.88" height="100" as="geometry" />
        </mxCell>
        <mxCell id="4vXdtOB4Ty5rOKLSspI8-158" value="动图" style="text;strokeColor=none;align=center;fillColor=none;html=1;verticalAlign=middle;whiteSpace=wrap;rounded=0;" vertex="1" parent="1">
          <mxGeometry x="215" y="1360" width="60" height="30" as="geometry" />
        </mxCell>
        <mxCell id="4vXdtOB4Ty5rOKLSspI8-159" value="finish these within only xxminutes to earn ￥xxx" style="text;strokeColor=none;align=left;fillColor=none;html=1;verticalAlign=middle;whiteSpace=wrap;rounded=0;" vertex="1" parent="1">
          <mxGeometry x="450" y="1610" width="269.88" height="30" as="geometry" />
        </mxCell>
        <mxCell id="4vXdtOB4Ty5rOKLSspI8-160" value="遮罩层&lt;div&gt;点击显示&amp;nbsp;&lt;/div&gt;&lt;div&gt;start a survey&lt;/div&gt;" style="text;strokeColor=none;align=left;fillColor=none;html=1;verticalAlign=middle;whiteSpace=wrap;rounded=0;" vertex="1" parent="1">
          <mxGeometry x="460.12" y="1530" width="118.5" height="30" as="geometry" />
        </mxCell>
        <mxCell id="4vXdtOB4Ty5rOKLSspI8-163" value="遮罩层&lt;div&gt;点击显示&amp;nbsp;&lt;/div&gt;&lt;div&gt;start a survey&lt;/div&gt;" style="text;strokeColor=none;align=left;fillColor=none;html=1;verticalAlign=middle;whiteSpace=wrap;rounded=0;" vertex="1" parent="1">
          <mxGeometry x="591.5" y="1535" width="118.5" height="30" as="geometry" />
        </mxCell>
        <mxCell id="4vXdtOB4Ty5rOKLSspI8-164" value="Join them right now" style="whiteSpace=wrap;html=1;" vertex="1" parent="1">
          <mxGeometry x="326.88" y="2660" width="176.25" height="30" as="geometry" />
        </mxCell>
        <mxCell id="4vXdtOB4Ty5rOKLSspI8-168" value="Start earning right now" style="whiteSpace=wrap;html=1;" vertex="1" parent="1">
          <mxGeometry x="332.87" y="2070" width="176.25" height="30" as="geometry" />
        </mxCell>
      </root>
    </mxGraphModel>
  </diagram>
</mxfile>
